<svg width="50" height="50" viewBox="0 0 50 50" fill="none" xmlns="http://www.w3.org/2000/svg">
<path fill-rule="evenodd" clip-rule="evenodd" d="M13.7931 0C6.17538 0 0 6.17538 0 13.7931V36.2069C0 43.8246 6.17538 50 13.7931 50H36.2069C43.8246 50 50 43.8246 50 36.2069V13.7931C50 6.17538 43.8246 0 36.2069 0H13.7931ZM40 24.8276C31.7463 24.5313 25.1238 17.9088 24.8276 9.65517C24.5313 17.9088 17.9088 24.5313 9.65517 24.8276C17.9088 25.1238 24.5313 31.7463 24.8276 40C25.1238 31.7463 31.7463 25.1238 40 24.8276Z" fill="#151515"/>
<path fill-rule="evenodd" clip-rule="evenodd" d="M13.7931 0C6.17538 0 0 6.17538 0 13.7931V36.2069C0 43.8246 6.17538 50 13.7931 50H36.2069C43.8246 50 50 43.8246 50 36.2069V13.7931C50 6.17538 43.8246 0 36.2069 0H13.7931ZM40 24.8276C31.7463 24.5313 25.1238 17.9088 24.8276 9.65517C24.5313 17.9088 17.9088 24.5313 9.65517 24.8276C17.9088 25.1238 24.5313 31.7463 24.8276 40C25.1238 31.7463 31.7463 25.1238 40 24.8276Z" fill="url(#paint0_linear_11909_4629)"/>
<defs>
<linearGradient id="paint0_linear_11909_4629" x1="-0.806452" y1="50" x2="55.6685" y2="39.3044" gradientUnits="userSpaceOnUse">
<stop stop-color="#346DFF"/>
<stop offset="1" stop-color="#2800C6"/>
</linearGradient>
</defs>
</svg>
